<svg width="852" height="786" viewBox="0 0 852 786" fill="none" xmlns="http://www.w3.org/2000/svg">
<path d="M99.5542 322.458C129.518 168.027 303.367 71.7072 488.013 107.533C672.66 143.359 797.874 297.705 767.91 452.136C737.947 606.567 564.098 702.887 379.451 667.061C194.804 631.235 69.5907 476.89 99.5542 322.458Z" stroke="black"/>
<path d="M554.83 169.434C700.596 244.914 760.796 406.076 689.497 529.345C618.197 652.615 442.283 691.514 296.517 616.034C150.751 540.554 90.5511 379.393 161.85 256.123C233.149 132.853 409.064 93.9547 554.83 169.434Z" stroke="black"/>
<path d="M533.484 206.339C655.247 269.389 705.076 404.778 644.974 508.689C584.872 612.6 437.491 645.871 315.728 582.82C193.965 519.77 144.136 384.381 204.238 280.47C264.34 176.559 411.722 143.288 533.484 206.339Z" stroke="black"/>
<path d="M511.469 228.509C614.25 281.73 655.87 396.76 604.608 485.389C553.345 574.017 428.512 602.855 325.73 549.634C222.948 496.412 181.328 381.382 232.591 292.754C283.854 204.125 408.687 175.287 511.469 228.509Z" stroke="black"/>
<path d="M496.107 250.527C580.446 294.199 612.667 391.988 568.17 468.919C523.674 545.849 419.255 572.884 334.915 529.212C250.576 485.54 218.355 387.751 262.852 310.821C307.348 233.89 411.767 206.855 496.107 250.527Z" stroke="black"/>
<path d="M481.67 276.622C546.167 310.02 568.94 388.12 532.533 451.065C496.126 514.01 414.326 537.961 349.829 504.563C285.332 471.166 262.559 393.065 298.966 330.121C335.373 267.176 417.173 243.225 481.67 276.622Z" stroke="black"/>
<path d="M469.425 296.658C521.918 323.84 540.226 387.814 510.3 439.552C480.374 491.291 413.557 511.186 361.064 484.004C308.57 456.823 290.262 392.849 320.188 341.11C350.114 289.371 416.931 269.476 469.425 296.658Z" stroke="black"/>
<path d="M443.134 348.626C469.706 362.386 479.826 393.174 465.833 417.366C451.84 441.559 418.978 450.09 392.405 436.331C365.832 422.571 355.712 391.783 369.705 367.59C383.699 343.397 416.561 334.866 443.134 348.626Z" stroke="black"/>
<path d="M489.391 348.593C510.521 378.609 495.679 422.013 455.901 445.486C416.123 468.958 366.816 463.407 345.686 433.392C324.556 403.376 339.398 359.971 379.176 336.499C418.954 313.027 468.261 318.578 489.391 348.593Z" stroke="black"/>
</svg>
