<svg width="782" height="628" viewBox="0 0 782 628" fill="none" xmlns="http://www.w3.org/2000/svg">
<path d="M94.3166 393.061C79.343 340.378 99.4225 283.047 144.142 232.923C188.857 182.803 258.16 139.95 341.463 116.273C424.765 92.5973 506.248 92.5941 570.639 111.703C635.036 130.815 682.267 169.014 697.241 221.697C712.214 274.38 692.135 331.711 647.416 381.835C602.701 431.955 533.397 474.808 450.095 498.484C366.793 522.161 285.31 522.164 220.919 503.054C156.521 483.943 109.29 445.744 94.3166 393.061Z" stroke="black"/>
<path d="M419.103 129.024C493.264 124.751 557.232 141.587 600.707 172.237C644.184 202.888 667.134 247.323 659.384 298.255C651.634 349.187 614.637 397.077 560.981 433.326C507.327 469.573 437.058 494.146 362.897 498.42C288.736 502.693 224.768 485.857 181.293 455.207C137.816 424.556 114.867 380.121 122.616 329.189C130.366 278.257 167.363 230.367 221.019 194.118C274.673 157.871 344.942 133.298 419.103 129.024Z" stroke="black"/>
<path d="M414.455 159.572C476.405 156.001 529.814 170.226 566.087 196.085C602.361 221.945 621.468 259.41 614.937 302.331C608.407 345.251 577.46 385.601 532.605 416.136C487.751 446.67 429.031 467.357 367.08 470.927C305.13 474.497 251.722 460.273 215.448 434.414C179.174 408.554 160.067 371.089 166.598 328.168C173.128 285.247 204.075 244.898 248.93 214.362C293.784 183.828 352.504 163.142 414.455 159.572Z" stroke="black"/>
<path d="M404.004 181.369C456.299 178.356 501.357 190.519 531.934 212.596C562.513 234.673 578.581 266.636 573.012 303.233C567.444 339.829 541.279 374.226 503.382 400.25C465.486 426.273 415.896 443.89 363.601 446.904C311.306 449.918 266.248 437.755 235.67 415.678C205.092 393.601 189.024 361.637 194.592 325.041C200.161 288.444 226.325 254.047 264.223 228.024C302.119 202.001 351.708 184.383 404.004 181.369Z" stroke="black"/>
<path d="M399.042 200.58C441.961 198.106 478.832 208.789 503.753 228.037C528.674 247.285 541.624 275.076 536.792 306.834C531.96 338.592 510.248 368.381 478.978 390.867C447.707 413.353 406.904 428.512 363.985 430.985C321.066 433.459 284.195 422.776 259.274 403.528C234.353 384.28 221.403 356.49 226.235 324.731C231.068 292.973 252.779 263.185 284.05 240.699C315.32 218.212 356.123 203.053 399.042 200.58Z" stroke="black"/>
<path d="M396.303 221.933C462.01 218.146 508.647 257.36 500.745 309.29C492.844 361.22 433.343 406.55 367.636 410.337C301.929 414.123 255.292 374.91 263.194 322.98C271.095 271.05 330.596 225.72 396.303 221.933Z" stroke="black"/>
<path d="M393.232 238.764C446.725 235.681 484.614 267.939 478.124 310.593C471.634 353.248 423.171 390.483 369.678 393.565C316.186 396.648 278.296 364.39 284.786 321.735C291.277 279.081 339.74 241.846 393.232 238.764Z" stroke="black"/>
<path d="M389.826 280.367C403.357 279.587 414.969 282.956 422.807 289.011C430.646 295.065 434.691 303.782 433.18 313.714C431.668 323.646 424.875 332.987 415.04 340.06C405.204 347.133 392.353 351.912 378.821 352.691C365.29 353.471 353.678 350.102 345.84 344.048C338.002 337.994 333.956 329.277 335.468 319.345C336.979 309.413 343.772 300.071 353.607 292.999C363.443 285.926 376.294 281.147 389.826 280.367Z" stroke="black"/>
<path d="M428.32 262.931C456.541 273.319 459.648 305.346 434.877 334.581C410.106 363.817 367.107 378.873 338.885 368.485C310.663 358.097 307.556 326.071 332.328 296.835C357.099 267.599 400.098 252.544 428.32 262.931Z" stroke="black"/>
</svg>
