<svg width="644" height="498" viewBox="0 0 644 498" fill="none" xmlns="http://www.w3.org/2000/svg">
<path d="M66.4071 194.867C75.3778 148.632 112.715 112.372 165.967 91.1688C219.214 69.9681 288.308 63.8546 360.621 77.8851C432.934 91.9156 494.728 123.425 536.183 163C577.642 202.579 598.71 250.171 589.739 296.406C580.768 342.641 543.432 378.901 490.179 400.104C436.932 421.305 367.838 427.418 295.525 413.388C223.212 399.357 161.418 367.848 119.963 328.273C78.5038 288.694 57.4364 241.102 66.4071 194.867Z" stroke="black"/>
<path d="M414.564 117.701C472.454 143.098 514.466 180.765 535.606 221.113C556.747 261.463 557 304.453 531.479 340.56C505.958 376.667 459.436 399.137 404.764 406.227C350.094 413.317 287.325 405.017 229.436 379.621C171.546 354.224 129.534 316.557 108.394 276.209C87.2534 235.859 86.9998 192.868 112.521 156.761C138.042 120.654 184.564 98.1847 239.236 91.0944C293.906 84.0044 356.675 92.3045 414.564 117.701Z" stroke="black"/>
<path d="M399.248 139.37C447.605 160.584 482.614 192.16 500.14 226.042C517.667 259.925 517.696 296.075 496.192 326.499C474.688 356.923 435.666 375.941 389.874 382.046C344.085 388.151 291.576 381.333 243.22 360.119C194.864 338.905 159.854 307.328 142.328 273.446C124.801 239.563 124.772 203.414 146.276 172.989C167.78 142.565 206.803 123.548 252.594 117.443C298.384 111.338 350.892 118.156 399.248 139.37Z" stroke="black"/>
<path d="M382.907 152.073C423.725 169.98 453.196 196.742 467.862 225.516C482.528 254.29 482.376 285.037 464.042 310.975C445.709 336.914 412.611 353.208 373.839 358.538C335.068 363.869 290.671 358.225 249.853 340.318C209.035 322.411 179.565 295.648 164.899 266.875C150.232 238.101 150.384 207.354 168.718 181.415C187.052 155.477 220.149 139.183 258.921 133.852C297.692 128.522 342.09 134.166 382.907 152.073Z" stroke="black"/>
<path d="M371.729 164.912C405.225 179.606 429.057 202.064 440.524 226.476C451.991 250.887 451.087 277.224 435.178 299.732C419.269 322.24 391.327 336.715 358.947 341.891C326.567 347.066 289.784 342.932 256.288 328.237C222.792 313.543 198.96 291.085 187.493 266.673C176.026 242.262 176.931 215.925 192.84 193.417C208.748 170.909 236.691 156.434 269.07 151.258C301.45 146.083 338.233 150.217 371.729 164.912Z" stroke="black"/>
<path d="M361.41 180.256C412.685 202.751 432.896 250.879 406.888 287.676C380.879 324.473 318.303 336.282 267.028 313.787C215.753 291.292 195.541 243.164 221.55 206.367C247.558 169.57 310.134 157.761 361.41 180.256Z" stroke="black"/>
<path d="M352.584 191.998C394.322 210.308 410.584 249.709 389.226 279.927C367.867 310.146 316.788 320.004 275.05 301.693C233.312 283.382 217.05 243.981 238.409 213.763C259.767 183.545 310.846 173.687 352.584 191.998Z" stroke="black"/>
<path d="M333.943 222.64C344.494 227.269 351.988 234.338 355.59 242.007C359.192 249.675 358.895 257.915 353.93 264.94C348.964 271.964 340.23 276.503 330.059 278.129C319.887 279.755 308.312 278.458 297.762 273.829C287.211 269.201 279.716 262.132 276.114 254.463C272.512 246.795 272.81 238.555 277.775 231.53C282.74 224.506 291.475 219.967 301.646 218.341C311.817 216.715 323.392 218.012 333.943 222.64Z" stroke="black"/>
<path d="M369.845 224.107C387.205 242.963 377.234 268.735 347.182 281.603C317.129 294.472 278.76 289.399 261.4 270.544C244.039 251.688 254.01 225.916 284.063 213.047C314.115 200.178 352.484 205.251 369.845 224.107Z" stroke="black"/>
</svg>
